Coordinates
version=1
nRows=31
nColumns=38
inDegrees=no

Units are S.I. units (second, meters, Newtons, ...)
If the header above contains a line with 'inDegrees', this indicates whether rotational values are in degrees (yes) or radians (no).

endheader
time	pelvis_tilt	pelvis_list	pelvis_rotation	pelvis_tx	pelvis_ty	pelvis_tz	hip_flexion_r	hip_adduction_r	hip_rotation_r	knee_angle_r	ankle_angle_r	subtalar_angle_r	mtp_angle_r	hip_flexion_l	hip_adduction_l	hip_rotation_l	knee_angle_l	ankle_angle_l	subtalar_angle_l	mtp_angle_l	lumbar_extension	lumbar_bending	lumbar_rotation	arm_flex_r	arm_add_r	arm_rot_r	elbow_flex_r	pro_sup_r	wrist_flex_r	wrist_dev_r	arm_flex_l	arm_add_l	arm_rot_l	elbow_flex_l	pro_sup_l	wrist_flex_l	wrist_dev_l
0	-3.05073	1.30274	-1.64307	0.64537	-0.407412	1.04789	-0.238217	-0.0980882	-0.446624	0.431664	-0.110462	0	0	-0.442557	0.018848	-0.229372	0	-0.501437	0	0	-0.330112	-0.0203645	-0.114082	0.0080479	-0.34565	0.661601	0.558009	0.953634	0	0	-0.00292434	-0.266519	0.426919	0.536482	1.5708	0	0
0.01	-3.0499	1.3031	-1.64405	0.645756	-0.407189	1.04781	-0.238455	-0.0978982	-0.446239	0.431065	-0.110138	0	0	-0.442224	0.0188669	-0.229986	0	-0.501317	0	0	-0.329189	-0.0210787	-0.113369	0.0075496	-0.345656	0.663508	0.558269	0.952396	0	0	-0.00258351	-0.265658	0.425777	0.537918	1.5708	0	0
0.02	-3.04799	1.30334	-1.64571	0.646125	-0.407017	1.04777	-0.238637	-0.0980925	-0.446598	0.430831	-0.110023	0	0	-0.441864	0.0189978	-0.230054	0	-0.501324	0	0	-0.328915	-0.0218895	-0.113102	0.00732571	-0.345522	0.665491	0.558466	0.951008	0	0	-0.00209085	-0.265063	0.424826	0.539673	1.5708	0	0
0.03	-3.04723	1.30263	-1.64569	0.64643	-0.406952	1.04789	-0.2385	-0.0980598	-0.44838	0.432876	-0.110032	0	0	-0.442267	0.018673	-0.2297	0	-0.501258	0	0	-0.330313	-0.0222268	-0.113347	0.00795315	-0.345584	0.668991	0.558636	0.94816	0	0	-0.00149911	-0.264576	0.423327	0.542137	1.5708	0	0
0.04	-3.04555	1.30224	-1.64628	0.646729	-0.406906	1.04798	-0.238352	-0.0981016	-0.450196	0.434307	-0.109826	0	0	-0.44204	0.0184145	-0.228769	0	-0.501046	0	0	-0.331523	-0.0226404	-0.11412	0.00892677	-0.345617	0.673491	0.558605	0.945393	0	0	-0.00131968	-0.264439	0.422435	0.545266	1.5708	0	0
0.05	-3.04444	1.30267	-1.64708	0.647104	-0.406739	1.04795	-0.237927	-0.097872	-0.450532	0.434561	-0.109628	0	0	-0.441205	0.0181573	-0.228805	0	-0.500928	0	0	-0.331425	-0.0230127	-0.113988	0.00905303	-0.345458	0.676277	0.558397	0.944105	0	0	-0.00155714	-0.264051	0.42173	0.548102	1.5708	0	0
0.06	-3.04326	1.30293	-1.64784	0.647474	-0.40656	1.04791	-0.237862	-0.0976189	-0.450558	0.434628	-0.109572	0	0	-0.440589	0.0178463	-0.228758	0	-0.50087	0	0	-0.331384	-0.023402	-0.11416	0.00894962	-0.345085	0.678276	0.55832	0.942837	0	0	-0.00167889	-0.263522	0.421048	0.550474	1.5708	0	0
0.07	-3.04228	1.3022	-1.64746	0.647697	-0.406451	1.04798	-0.239054	-0.097295	-0.45114	0.434451	-0.109966	0	0	-0.44096	0.0172992	-0.22747	0	-0.50093	0	0	-0.333212	-0.0234539	-0.11587	0.0100176	-0.345085	0.682322	0.558679	0.939108	0	0	-0.00194953	-0.263473	0.420149	0.553473	1.5708	0	0
0.08	-3.04212	1.30039	-1.64595	0.647795	-0.406425	1.04821	-0.241594	-0.0968744	-0.452286	0.43382	-0.110785	0	0	-0.442521	0.016667	-0.225774	0	-0.501361	0	0	-0.336884	-0.0229198	-0.118309	0.0121331	-0.345583	0.687829	0.559382	0.932846	0	0	-0.00208615	-0.263387	0.419432	0.556583	1.5708	0	0
0.09	-3.0409	1.29953	-1.64594	0.648013	-0.406345	1.04831	-0.242798	-0.0967606	-0.452779	0.433928	-0.110794	0	0	-0.443128	0.0162971	-0.224403	0	-0.501406	0	0	-0.33711	-0.0231326	-0.118309	0.0118199	-0.34566	0.69171	0.559196	0.927657	0	0	-0.00166757	-0.262664	0.420603	0.557223	1.5708	0	0
0.1	-3.03916	1.29917	-1.64665	0.648291	-0.406249	1.04833	-0.243323	-0.0967086	-0.45272	0.434225	-0.110637	0	0	-0.443284	0.0160187	-0.222965	0	-0.50123	0	0	-0.336955	-0.0235457	-0.118642	0.0117406	-0.345561	0.695993	0.559018	0.921765	0	0	-0.00167522	-0.26223	0.421723	0.558268	1.5708	0	0
0.11	-3.03845	1.29888	-1.6468	0.648594	-0.406124	1.04833	-0.24368	-0.0964053	-0.452056	0.434588	-0.110559	0	0	-0.443569	0.0156317	-0.222325	0	-0.501036	0	0	-0.336885	-0.0237821	-0.118671	0.0117887	-0.345638	0.700634	0.558997	0.914646	0	0	-0.00185259	-0.261539	0.422191	0.558967	1.5708	0	0
0.12	-3.03767	1.29811	-1.64694	0.64888	-0.406072	1.04837	-0.244588	-0.096079	-0.451417	0.434628	-0.110447	0	0	-0.44437	0.0152966	-0.221515	0	-0.501021	0	0	-0.337709	-0.0240087	-0.119268	0.0130523	-0.346444	0.709388	0.559544	0.899786	0	0	-0.00209556	-0.260909	0.421808	0.559558	1.5708	0	0
0.13	-3.03707	1.29748	-1.64702	0.649166	-0.406038	1.04839	-0.245334	-0.0957358	-0.451265	0.434736	-0.110146	0	0	-0.444968	0.0149546	-0.22103	0	-0.501073	0	0	-0.338605	-0.0241226	-0.119674	0.0141443	-0.347005	0.716642	0.559945	0.888449	0	0	-0.00235711	-0.260232	0.421088	0.559968	1.5708	0	0
0.14	-3.03533	1.29689	-1.64797	0.649459	-0.406055	1.04844	-0.246085	-0.0956209	-0.451972	0.434858	-0.109495	0	0	-0.445399	0.0148536	-0.220104	0	-0.501192	0	0	-0.339853	-0.0243774	-0.120958	0.0162671	-0.347798	0.726692	0.560396	0.872982	0	0	-0.00299228	-0.259816	0.419493	0.560539	1.5708	0	0
0.15	-3.0341	1.29669	-1.64904	0.649805	-0.406043	1.04844	-0.246168	-0.0954916	-0.452529	0.43549	-0.108554	0	0	-0.445651	0.0148569	-0.220038	0	-0.500829	0	0	-0.340953	-0.0246266	-0.121502	0.0181859	-0.348563	0.735856	0.560841	0.859734	0	0	-0.00384574	-0.259335	0.417279	0.561226	1.5708	0	0
0.16	-3.03353	1.29666	-1.64975	0.650153	-0.406016	1.0484	-0.245884	-0.0953536	-0.452818	0.436364	-0.107792	0	0	-0.445786	0.0147861	-0.220531	0	-0.500199	0	0	-0.342094	-0.0249016	-0.121144	0.0191993	-0.348874	0.741388	0.56123	0.851862	0	0	-0.00415414	-0.259059	0.41626	0.56174	1.5708	0	0
0.17	-3.033	1.29639	-1.65047	0.650497	-0.406048	1.04836	-0.245648	-0.0954343	-0.453392	0.437625	-0.106853	0	0	-0.446006	0.0147408	-0.22115	0	-0.499148	0	0	-0.342549	-0.0255353	-0.119331	0.019296	-0.349169	0.746668	0.561344	0.843517	0	0	-0.00347567	-0.258582	0.41654	0.560966	1.5708	0	0
0.18	-3.03209	1.29641	-1.65151	0.650823	-0.406092	1.04831	-0.244833	-0.095886	-0.453997	0.439433	-0.105586	0	0	-0.445781	0.0147826	-0.221707	0	-0.497444	0	0	-0.342643	-0.0260508	-0.117676	0.0193827	-0.349463	0.751864	0.561358	0.834821	0	0	-0.00258763	-0.258176	0.417913	0.559665	1.5708	0	0
0.19	-3.03023	1.29689	-1.65315	0.651109	-0.406131	1.04824	-0.243181	-0.0967916	-0.454804	0.442094	-0.103689	0	0	-0.444879	0.01492	-0.221865	0	-0.494622	0	0	-0.342135	-0.0266928	-0.116024	0.0192054	-0.349636	0.757037	0.561054	0.825713	0	0	-0.00134347	-0.258357	0.422274	0.558069	1.5708	0	0
0.2	-3.02818	1.29822	-1.65529	0.651415	-0.406066	1.04808	-0.240262	-0.0979258	-0.455789	0.446324	-0.100616	0	0	-0.443156	0.0151023	-0.222131	0	-0.489924	0	0	-0.340346	-0.0274884	-0.114193	0.0188255	-0.349572	0.762552	0.560129	0.816248	0	0	-0.000109114	-0.259901	0.433073	0.556833	1.5708	0	0
0.21	-3.02376	1.30121	-1.65971	0.65175	-0.405911	1.04773	-0.234481	-0.100341	-0.457988	0.45461	-0.0947274	0	0	-0.439388	0.0156432	-0.221852	0	-0.480128	0	0	-0.335519	-0.0288907	-0.112633	0.0179723	-0.349501	0.770037	0.558767	0.803727	0	0	0.00132925	-0.263036	0.454472	0.55529	1.53465	0	0
0.22	-3.01504	1.30854	-1.66873	0.652131	-0.405493	1.04697	-0.222069	-0.104826	-0.460842	0.46909	-0.0852656	0	0	-0.430721	0.0169081	-0.221255	0	-0.462218	0	0	-0.323158	-0.0313496	-0.11055	0.0148572	-0.348561	0.77682	0.555576	0.790008	0	0	0.00205935	-0.26624	0.481057	0.551409	1.48447	0	0
0.23	-3.02154	1.30201	-1.66173	0.652312	-0.405975	1.04764	-0.232811	-0.100768	-0.458203	0.456786	-0.0932952	0	0	-0.437994	0.0154347	-0.221566	0	-0.477919	0	0	-0.336987	-0.0295555	-0.110491	0.0180131	-0.349251	0.775914	0.558118	0.800439	0	0	0.00201942	-0.263573	0.457833	0.555048	1.52403	0	0
0.24	-3.02399	1.29987	-1.65824	0.652488	-0.406278	1.04813	-0.238667	-0.0970821	-0.45395	0.445098	-0.101642	0	0	-0.440062	0.0143476	-0.220242	0	-0.492102	0	0	-0.344786	-0.0305029	-0.111794	0.0217987	-0.343659	0.77288	0.550698	0.815613	0	0	-0.000681295	-0.259252	0.423219	0.55718	1.5708	0	0
0.25	-3.02446	1.29748	-1.6571	0.652701	-0.406517	1.04822	-0.242093	-0.0962269	-0.453491	0.442572	-0.103823	0	0	-0.44226	0.0138382	-0.220251	0	-0.49578	0	0	-0.348957	-0.0284094	-0.111358	0.0212285	-0.347238	0.775073	0.55628	0.821651	0	0	-0.0004907	-0.255795	0.413045	0.555492	1.5708	0	0
0.26	-3.02625	1.29643	-1.6552	0.652929	-0.406628	1.04833	-0.24408	-0.0949888	-0.452646	0.440076	-0.105788	0	0	-0.443302	0.0131031	-0.220951	0	-0.498801	0	0	-0.351455	-0.0277606	-0.110242	0.0219359	-0.347896	0.78062	0.556257	0.826569	0	0	-0.000570265	-0.253939	0.40693	0.554308	1.5708	0	0
0.27	-3.02825	1.29587	-1.65374	0.653188	-0.406662	1.04831	-0.245236	-0.0940943	-0.451902	0.438573	-0.107078	0	0	-0.443962	0.0125227	-0.22297	0	-0.500896	0	0	-0.35096	-0.0266186	-0.112671	0.0323675	-0.35605	0.833566	0.560103	0.75072	0	0	-0.00380401	-0.252479	0.400611	0.552797	1.5708	0	0
0.28	-3.02779	1.29615	-1.65422	0.653423	-0.40674	1.04827	-0.24483	-0.0940754	-0.452129	0.438912	-0.106838	0	0	-0.443435	0.0123933	-0.223498	0	-0.500829	0	0	-0.351725	-0.0263646	-0.111379	0.0340001	-0.357162	0.844728	0.559801	0.74118	0	0	-0.00345266	-0.252287	0.401908	0.552033	1.5708	0	0
0.29	-3.02619	1.29683	-1.65549	0.653665	-0.406807	1.04825	-0.24392	-0.0942161	-0.452055	0.439323	-0.106646	0	0	-0.442288	0.0124023	-0.223642	0	-0.500822	0	0	-0.352155	-0.0266815	-0.110312	0.0345827	-0.357631	0.85315	0.559005	0.734077	0	0	-0.00321404	-0.25246	0.403445	0.551806	1.5708	0	0
0.3	-3.02559	1.29782	-1.65625	0.653932	-0.406772	1.04818	-0.242682	-0.094142	-0.451706	0.439886	-0.106444	0	0	-0.441145	0.0123061	-0.224339	0	-0.500904	0	0	-0.352186	-0.0269389	-0.108721	0.0347095	-0.357779	0.860288	0.55769	0.728129	0	0	-0.00341874	-0.252725	0.405118	0.55208	1.5708	0	0
